<svg width="155" height="160" viewBox="0 0 155 160" fill="none" xmlns="http://www.w3.org/2000/svg">
<path d="M21.672 134.36C21.672 126.872 18.072 118.76 9.768 118.76L0.0720001 118.712V145.592C2.136 147.272 5.784 149.336 9.624 149.336C16.968 149.336 21.672 141.8 21.672 134.36ZM17.688 134.744C17.688 140.264 14.856 146.888 8.904 146.888C6.888 146.888 4.776 145.832 3.624 144.776V121.16H7.416C15.864 121.352 17.688 128.168 17.688 134.744ZM42.3919 147.08L41.5759 145.4C39.7999 146.264 38.0719 147.08 35.6719 147.128C31.7359 147.272 28.9519 143.576 29.3359 138.104H42.1999C42.1039 131.624 39.9439 127.592 34.0879 127.592C27.9439 127.592 25.6879 133.304 25.6399 138.824C25.6399 142.376 27.0319 145.688 29.3359 147.656C31.8319 149.768 35.7679 149.72 38.7919 148.856C40.1839 148.424 41.2879 147.8 42.3919 147.08ZM38.6479 136.04H29.4319C29.6719 133.016 30.8719 129.752 34.2319 129.752C37.3519 129.752 38.6959 133.016 38.6959 136.088L38.6479 136.04ZM52.7884 149.576C56.8204 149.576 61.0924 147.464 61.1404 142.952C61.1404 141.032 60.2764 139.784 59.1244 138.872C58.0204 138.008 56.6764 137.528 55.3804 137C54.0364 136.472 52.5964 135.896 51.5404 135.416C50.4364 134.936 49.7164 134.264 49.7164 133.064C49.7644 130.808 51.9724 129.752 53.9884 129.752C55.5244 129.8 57.0124 130.232 58.5964 131.144L59.8924 129.08C57.9724 128.024 55.9564 127.304 53.7964 127.304C50.0524 127.304 46.4524 129.512 46.4524 133.544C46.4524 135.512 47.3164 136.712 48.4684 137.528C49.5724 138.392 50.9164 138.872 52.2124 139.352C52.8844 139.544 53.5564 139.832 54.1804 140.072C55.7644 140.696 57.6364 141.32 57.6844 143.384C57.7804 146.024 55.0444 147.08 52.7404 147.08C50.8684 147.032 48.7564 146.312 47.3164 145.208L46.0684 147.224C47.8924 148.616 50.3404 149.576 52.7884 149.576ZM81.2513 147.08L80.4353 145.4C78.6593 146.264 76.9313 147.08 74.5312 147.128C70.5953 147.272 67.8113 143.576 68.1953 138.104H81.0593C80.9633 131.624 78.8033 127.592 72.9473 127.592C66.8033 127.592 64.5473 133.304 64.4993 138.824C64.4993 142.376 65.8913 145.688 68.1953 147.656C70.6913 149.768 74.6273 149.72 77.6513 148.856C79.0433 148.424 80.1473 147.8 81.2513 147.08ZM77.5073 136.04H68.2913C68.5312 133.016 69.7313 129.752 73.0913 129.752C76.2113 129.752 77.5553 133.016 77.5553 136.088L77.5073 136.04ZM94.9598 130.088C95.4398 130.088 96.2558 130.232 96.9278 130.376C97.3118 129.512 97.8878 128.408 98.3198 127.544C95.3918 127.016 93.3758 127.496 91.2638 128.264C89.2958 128.936 87.5678 130.088 86.2718 131.528V149H89.7758V132.008C91.0238 130.952 92.6078 130.088 94.9118 130.088H94.9598ZM102.792 130.232V144.008C102.792 147.608 105.576 149.72 110.232 149.288V147.464C107.784 147.368 106.296 146.696 106.296 143.912V130.232H110.232V127.976H106.296V120.872L102.792 122.12V127.976H100.392V130.232H102.792ZM118.791 134.84H125.367C129.975 134.84 133.431 131.432 133.431 126.824C133.383 122.264 129.687 118.712 124.839 118.664C120.999 118.712 115.287 118.712 115.287 118.712V149H118.791V134.84ZM129.879 126.728C129.879 130.088 127.623 132.44 124.311 132.44H118.791V121.208C118.791 121.208 122.055 121.208 124.407 121.208C127.431 121.208 129.879 123.896 129.879 126.728ZM140.779 142.184V127.448L137.227 128.648V143.24C137.227 147.128 140.827 149.384 143.995 149.384C148.123 149.384 150.475 148.232 151.531 147.752C151.579 148.28 151.531 148.136 151.531 148.664C151.531 150.2 151.483 152.84 150.763 154.184C149.323 156.92 145.483 157.304 142.795 157.688L143.371 159.896C146.923 159.8 151.915 158.456 153.691 155.096C154.699 153.176 154.843 149.48 154.843 147.032V127.976H151.339V145.112C150.187 145.88 148.075 146.936 146.203 146.984C143.083 147.032 140.779 145.352 140.779 142.136V142.184Z" fill="#444444"/>
<path d="M78.0718 110.067C106.104 110.067 104.353 97.9107 104.353 97.9107L104.322 85.3169H77.5718V81.5357H114.947C114.947 81.5357 132.884 83.5699 132.884 55.2856C132.884 27.0014 117.228 28.0044 117.228 28.0044H107.884V41.1294C107.884 41.1294 108.388 56.7856 92.478 56.7856C76.5681 56.7856 65.9468 56.7856 65.9468 56.7856C65.9468 56.7856 51.0405 56.5447 51.0405 71.1919C51.0405 85.8391 51.0405 95.4107 51.0405 95.4107C51.0405 95.4107 48.7774 110.067 78.0718 110.067ZM92.8218 101.598C90.1604 101.598 88.0093 99.4471 88.0093 96.7857C88.0093 94.1242 90.1604 91.9732 92.8218 91.9732C95.4832 91.9732 97.6343 94.1242 97.6343 96.7857C97.6343 99.4471 95.4832 101.598 92.8218 101.598Z" fill="url(#paint0_linear)"/>
<path d="M76.8125 0C48.7808 2e-06 50.5312 12.1562 50.5312 12.1562L50.5625 24.75H77.3125V28.5312H39.9375C39.9375 28.5312 22 26.497 22 54.7812C22 83.0655 37.6562 82.0625 37.6562 82.0625H47V68.9375C47 68.9375 46.4963 53.2812 62.4062 53.2812C78.3162 53.2812 88.9375 53.2812 88.9375 53.2812C88.9375 53.2812 103.844 53.5222 103.844 38.875C103.844 24.2278 103.844 14.6562 103.844 14.6562C103.844 14.6562 106.107 0 76.8125 0ZM62.0625 8.46875C64.7239 8.46875 66.875 10.6198 66.875 13.2812C66.875 15.9427 64.7239 18.0938 62.0625 18.0938C59.4011 18.0938 57.25 15.9427 57.25 13.2812C57.25 10.6198 59.4011 8.46875 62.0625 8.46875Z" fill="url(#paint1_linear)"/>
<ellipse cx="27.5" cy="51" rx="0.5" ry="3" fill="white" fill-opacity="0.5"/>
<ellipse cx="37.5" cy="40" rx="0.5" ry="3" fill="white" fill-opacity="0.5"/>
<ellipse cx="39.5" cy="58" rx="0.5" ry="3" fill="white" fill-opacity="0.5"/>
<ellipse cx="51.5" cy="46" rx="0.5" ry="3" fill="white" fill-opacity="0.5"/>
<ellipse cx="33.5" cy="69.5" rx="0.5" ry="2.5" fill="white" fill-opacity="0.5"/>
<ellipse cx="92.5" cy="40.5" rx="0.5" ry="2.5" fill="white" fill-opacity="0.5"/>
<ellipse cx="98.5" cy="29.5" rx="0.5" ry="2.5" fill="white" fill-opacity="0.5"/>
<ellipse cx="87.5" cy="23.5" rx="0.5" ry="2.5" fill="white" fill-opacity="0.5"/>
<ellipse cx="92.5" cy="11.5" rx="0.5" ry="2.5" fill="white" fill-opacity="0.5"/>
<ellipse cx="57.5" cy="72" rx="0.5" ry="3" fill="white" fill-opacity="0.5"/>
<ellipse cx="67.5" cy="84" rx="0.5" ry="3" fill="white" fill-opacity="0.5"/>
<ellipse cx="61.5" cy="97.5" rx="0.5" ry="2.5" fill="white" fill-opacity="0.5"/>
<ellipse cx="107.5" cy="62" rx="0.5" ry="3" fill="white" fill-opacity="0.5"/>
<ellipse cx="121.5" cy="51" rx="0.5" ry="3" fill="white" fill-opacity="0.5"/>
<ellipse cx="119.5" cy="71" rx="0.5" ry="3" fill="white" fill-opacity="0.5"/>
<ellipse cx="115.5" cy="37" rx="0.5" ry="3" fill="white" fill-opacity="0.5"/>
<ellipse cx="31.0657" cy="41.7085" rx="0.8526" ry="3.4104" transform="rotate(-14.7345 31.0657 41.7085)" fill="#026826"/>
<ellipse cx="31.9767" cy="39.806" rx="0.4263" ry="5.1156" transform="rotate(-6.73446 31.9767 39.806)" fill="#026826"/>
<ellipse cx="29.9218" cy="42.5422" rx="0.4263" ry="3.4104" transform="rotate(-37.4404 29.9218 42.5422)" fill="#026826"/>
<ellipse cx="98.5567" cy="12.7708" rx="0.784989" ry="3.13996" transform="rotate(12.1684 98.5567 12.7708)" fill="#026826"/>
<circle cx="97.7772" cy="15.2737" r="1" transform="rotate(-12.0249 97.7772 15.2737)" fill="#026826"/>
<ellipse cx="126.938" cy="42.8402" rx="0.834656" ry="3.33862" transform="rotate(26.2925 126.938 42.8402)" fill="#548920"/>
<ellipse cx="125.558" cy="41.549" rx="0.417328" ry="3.33862" transform="rotate(3.58656 125.558 41.549)" fill="#548920"/>
<ellipse cx="56.2896" cy="95.0574" rx="0.756511" ry="2" transform="rotate(-55.025 56.2896 95.0574)" fill="#548920"/>
<ellipse cx="55.9296" cy="93.0048" rx="0.756511" ry="3.02604" transform="rotate(-24.618 55.9296 93.0048)" fill="#548920"/>
<defs>
<linearGradient id="paint0_linear" x1="66.6624" y1="44.6726" x2="125.303" y2="100.853" gradientUnits="userSpaceOnUse">
<stop stop-color="#C1DA74"/>
<stop offset="1" stop-color="#83BD57"/>
</linearGradient>
<linearGradient id="paint1_linear" x1="32.6117" y1="9.60153" x2="87.2117" y2="64.3842" gradientUnits="userSpaceOnUse">
<stop stop-color="#77B753"/>
<stop offset="1" stop-color="#177C30"/>
</linearGradient>
</defs>
</svg>
