<svg width="111" height="111" viewBox="0 0 111 111" fill="none" xmlns="http://www.w3.org/2000/svg">
<path d="M56.0718 110.067C84.1035 110.067 82.353 97.9107 82.353 97.9107L82.3218 85.3169H55.5718V81.5357H92.9468C92.9468 81.5357 110.884 83.5699 110.884 55.2856C110.884 27.0014 95.228 28.0044 95.228 28.0044H85.8843V41.1294C85.8843 41.1294 86.3879 56.7856 70.478 56.7856C54.5681 56.7856 43.9468 56.7856 43.9468 56.7856C43.9468 56.7856 29.0405 56.5447 29.0405 71.1919C29.0405 85.8391 29.0405 95.4107 29.0405 95.4107C29.0405 95.4107 26.7774 110.067 56.0718 110.067ZM70.8218 101.598C68.1604 101.598 66.0093 99.4471 66.0093 96.7857C66.0093 94.1242 68.1604 91.9732 70.8218 91.9732C73.4832 91.9732 75.6343 94.1242 75.6343 96.7857C75.6343 99.4471 73.4832 101.598 70.8218 101.598Z" fill="url(#paint0_linear)"/>
<path d="M54.8125 0C26.7808 2e-06 28.5312 12.1562 28.5312 12.1562L28.5625 24.75H55.3125V28.5312H17.9375C17.9375 28.5312 0 26.497 0 54.7812C-2e-06 83.0655 15.6562 82.0625 15.6562 82.0625H25V68.9375C25 68.9375 24.4963 53.2812 40.4062 53.2812C56.3162 53.2812 66.9375 53.2812 66.9375 53.2812C66.9375 53.2812 81.8438 53.5222 81.8438 38.875C81.8438 24.2278 81.8438 14.6562 81.8438 14.6562C81.8438 14.6562 84.1069 0 54.8125 0ZM40.0625 8.46875C42.7239 8.46875 44.875 10.6198 44.875 13.2812C44.875 15.9427 42.7239 18.0938 40.0625 18.0938C37.4011 18.0938 35.25 15.9427 35.25 13.2812C35.25 10.6198 37.4011 8.46875 40.0625 8.46875Z" fill="url(#paint1_linear)"/>
<ellipse cx="5.5" cy="51" rx="0.5" ry="3" fill="white" fill-opacity="0.5"/>
<ellipse cx="15.5" cy="40" rx="0.5" ry="3" fill="white" fill-opacity="0.5"/>
<ellipse cx="17.5" cy="58" rx="0.5" ry="3" fill="white" fill-opacity="0.5"/>
<ellipse cx="29.5" cy="46" rx="0.5" ry="3" fill="white" fill-opacity="0.5"/>
<ellipse cx="11.5" cy="69.5" rx="0.5" ry="2.5" fill="white" fill-opacity="0.5"/>
<ellipse cx="70.5" cy="40.5" rx="0.5" ry="2.5" fill="white" fill-opacity="0.5"/>
<ellipse cx="76.5" cy="29.5" rx="0.5" ry="2.5" fill="white" fill-opacity="0.5"/>
<ellipse cx="65.5" cy="23.5" rx="0.5" ry="2.5" fill="white" fill-opacity="0.5"/>
<ellipse cx="70.5" cy="11.5" rx="0.5" ry="2.5" fill="white" fill-opacity="0.5"/>
<ellipse cx="35.5" cy="72" rx="0.5" ry="3" fill="white" fill-opacity="0.5"/>
<ellipse cx="45.5" cy="84" rx="0.5" ry="3" fill="white" fill-opacity="0.5"/>
<ellipse cx="39.5" cy="97.5" rx="0.5" ry="2.5" fill="white" fill-opacity="0.5"/>
<ellipse cx="85.5" cy="62" rx="0.5" ry="3" fill="white" fill-opacity="0.5"/>
<ellipse cx="99.5" cy="51" rx="0.5" ry="3" fill="white" fill-opacity="0.5"/>
<ellipse cx="97.5" cy="71" rx="0.5" ry="3" fill="white" fill-opacity="0.5"/>
<ellipse cx="93.5" cy="37" rx="0.5" ry="3" fill="white" fill-opacity="0.5"/>
<ellipse cx="9.0657" cy="41.7085" rx="0.8526" ry="3.4104" transform="rotate(-14.7345 9.0657 41.7085)" fill="#026826"/>
<ellipse cx="9.97675" cy="39.806" rx="0.4263" ry="5.1156" transform="rotate(-6.73446 9.97675 39.806)" fill="#026826"/>
<ellipse cx="7.92181" cy="42.5422" rx="0.4263" ry="3.4104" transform="rotate(-37.4404 7.92181 42.5422)" fill="#026826"/>
<ellipse cx="76.5567" cy="12.7708" rx="0.784989" ry="3.13996" transform="rotate(12.1684 76.5567 12.7708)" fill="#026826"/>
<circle cx="75.7772" cy="15.2737" r="1" transform="rotate(-12.0249 75.7772 15.2737)" fill="#026826"/>
<ellipse cx="104.938" cy="42.8402" rx="0.834656" ry="3.33862" transform="rotate(26.2925 104.938 42.8402)" fill="#548920"/>
<ellipse cx="103.558" cy="41.549" rx="0.417328" ry="3.33862" transform="rotate(3.58656 103.558 41.549)" fill="#548920"/>
<ellipse cx="34.2896" cy="95.0574" rx="0.756511" ry="2" transform="rotate(-55.025 34.2896 95.0574)" fill="#548920"/>
<ellipse cx="33.9296" cy="93.0048" rx="0.756511" ry="3.02604" transform="rotate(-24.618 33.9296 93.0048)" fill="#548920"/>
<defs>
<linearGradient id="paint0_linear" x1="44.6624" y1="44.6726" x2="103.303" y2="100.853" gradientUnits="userSpaceOnUse">
<stop stop-color="#C1DA74"/>
<stop offset="1" stop-color="#83BD57"/>
</linearGradient>
<linearGradient id="paint1_linear" x1="10.6117" y1="9.60153" x2="65.2117" y2="64.3842" gradientUnits="userSpaceOnUse">
<stop stop-color="#77B753"/>
<stop offset="1" stop-color="#177C30"/>
</linearGradient>
</defs>
</svg>
